<svg xmlns="http://www.w3.org/2000/svg" viewBox="0 0 73.51 68.16">
  <g transform="matrix(1.9530191,0,0,1.9530191,-50.885554,-231.71235)" style="fill:#000000">
    <path style="fill:#000000;fill-opacity:1;stroke-width:0.130118" d="m 39.825965,153.26853 c -0.83338,-0.12656 -2.639607,-1.10425 -3.412012,-1.63994 -0.7724,-0.53569 -1.070094,-1.086 -1.337999,-1.28375 -1.247363,-0.92057 -2.411482,-0.46697 -3.448732,-1.07945 -1.170257,-0.691 -2.301966,-1.62195 -2.94558,-2.81897 -0.547772,-1.01871 -0.429658,-2.27326 -0.618961,-3.41435 -0.185318,-1.11698 -0.337202,-2.23929 -0.505882,-3.35891 -0.239653,-1.59073 -0.405127,-3.19441 -0.719175,-4.77214 -0.208915,-1.04957 -0.86754,-1.74814 -0.773718,-3.1159 0.104812,-1.53303 0.562142,-2.20655 0.873432,-2.51837 1.170583,-2.45086 6.061857,-5.8608 7.093311,-6.54593 1.391934,-0.92454 2.14273,-2.05538 3.474091,-2.64198 1.826458,-0.80474 4.358283,-0.24356 5.891058,-1.07094 1.956141,-0.73547 3.567398,-0.18054 5.459137,0.1195 0.830174,0.13128 1.93673,-0.5335 3.668577,-0.0586 3.873708,1.06235 4.778675,2.03007 8.561584,6.59555 1.096416,1.32328 0.189599,3.38176 1.510218,5.51447 0.954112,1.52147 0.926385,2.24639 1.096366,3.44302 0.01513,1.95488 -0.05281,2.94597 -0.252822,4.40206 -0.07018,0.51102 -0.566196,0.94975 -0.331022,1.5116 0.215275,0.51433 0.122922,1.02387 -0.335682,1.85202 -0.426681,0.77054 -0.568454,1.1797 -4.401787,4.37557 -5.348081,4.4587 -3.659744,4.52854 -6.175774,5.82242 -0.758412,0.39004 -2.510456,0.4933 -2.510456,0.4933 -1.546605,-0.0968 -2.278154,-0.0319 -2.674788,0.0225 -1.331243,0.18086 -3.775152,0.24647 -4.698389,0.39596 -0.923245,0.14952 -1.651565,-0.10277 -2.485021,-0.22786 z m 4.480173,-2.27756 c 0.271696,-0.0284 0.551146,-0.12443 0.764434,-0.29507 0.525269,-0.42017 1.469523,-1.45701 1.122282,-1.67709 -0.07347,-0.047 -0.164098,-0.27788 -0.201492,-0.51412 -0.05938,-0.37514 -0.352461,-0.42008 -0.599774,-0.46489 -0.811444,-0.14685 -1.559911,0.26528 -2.345276,0.56932 -0.580209,0.2246 -0.91749,0.51954 -0.958821,0.91427 -0.04408,0.42117 0.02816,0.89012 0.551078,1.19435 0.652556,0.3796 1.10729,0.3311 1.667569,0.27323 z m 5.039439,-2.10596 c -0.05681,-0.79073 -0.381273,-0.93768 -0.432191,-0.17111 -0.02066,0.3077 0.0028,0.60515 0.05171,0.661 0.330705,0.37775 0.408533,-0.0996 0.380483,-0.48989 z m 0.288488,-3.06639 c 0.503766,-0.13112 0.625946,-0.33278 0.934161,-0.50774 1.031673,-0.5856 2.356674,-0.85986 3.062095,-1.81359 0.669111,-0.90468 0.804039,-1.19708 0.794451,-3.28088 -0.0071,-1.53915 -0.06645,-3.09701 0.197971,-4.61328 0.12545,-0.71936 0.08795,-1.51432 0.652427,-2.09127 0.821364,-0.83959 2.045666,-0.65024 2.846181,-0.51454 0.714523,0.12101 1.766442,0.39901 2.168471,0.21198 0.237941,-0.11073 0.441422,-0.18367 0.506145,-1.1581 0,0 0.152783,-0.77901 -0.06253,-1.14108 -0.215318,-0.36205 -0.588313,-0.42579 -0.941488,-0.6176 -0.353176,-0.1918 -1.090134,-0.15998 -2.304667,-0.32426 -1.405897,-0.19021 -1.582448,-0.1952 -2.571525,-0.6538 -2.185186,-1.01312 -2.674267,-1.40321 -5.0191,-2.78699 -0.758515,-0.44767 -1.866602,-0.24076 -2.426481,-0.49048 -0.559893,-0.24971 -1.945199,-1.16265 -3.035197,-1.20715 -1.757503,0.38781 -2.438972,0.96693 -3.618038,1.53927 -1.176895,0.57124 -2.40975,1.4335 -3.441294,1.88682 -2.080473,0.91427 -2.451107,1.46756 -2.914385,4.35041 -0.285879,1.77901 -0.558786,2.50083 -1.064463,2.81538 -1.87424,1.1657 -1.989279,1.2631 -2.012879,1.70415 -0.01347,0.27072 0.116545,0.62847 0.345442,0.94319 0.351316,0.4831 0.425884,0.51591 1.575481,0.69272 0.663713,0.10162 1.360751,0.27149 1.548998,0.37647 0.528856,0.29493 0.760358,1.01613 0.845326,2.6335 0.08664,1.64936 0.473868,2.13256 1.015492,2.46053 0.24412,0.14781 1.437245,0.54258 2.182168,0.72153 0.943943,0.22679 1.924738,0.26179 2.878729,0.44168 1.262961,0.23815 1.44461,0.73674 3.762278,0.84337 2.882809,0.13317 3.167538,-0.52589 4.096237,-0.42024 z m -0.128259,-23.64959 c 0.425653,-0.0432 0.792749,-0.0715 0.902348,-0.68057 0.174154,-0.96735 -0.01593,-1.0157 -1.323098,-1.16077 -1.164487,-0.12946 -1.467669,0.13433 -1.783297,0.60981 -0.373154,0.38874 -0.163498,0.59149 -0.01464,0.79227 0.396785,0.27429 0.548937,0.29334 0.927576,0.3474 0.543598,0.0775 0.865296,0.13526 1.290969,0.0915 z" id="path6-2" />
    <g id="g2-1" transform="rotate(-0.7,45.06941,136.08325)" style="fill:#000000">
      <path style="fill:#000000;fill-opacity:1;stroke-width:0.184371" d="m 47.743606,141.32482 c 0.353304,-1.02183 0.57299,-2.07029 -0.106916,-2.60068 -1.035791,-0.80802 -1.4951,-0.85399 -1.36561,-1.57515 0.06945,-0.3869 0.186205,-0.82657 0.259412,-0.97698 0.307734,-0.63235 2.172555,0.0753 2.772151,1.12969 0.470567,0.82763 0.712473,1.51278 0.525449,2.53742 -0.187021,1.02465 -0.548448,1.70683 -1.750339,2.79734 -1.445267,1.31133 -2.632878,0.89509 -1.718996,0.31765 0.913881,-0.57745 1.079847,-1.0001 1.384849,-1.62929 z" id="path12-1" />
      <path style="fill:#000000;fill-opacity:1;stroke-width:0.184371" d="m 38.026714,134.36946 c -0.341272,-0.4625 -0.502891,-0.75204 -0.526659,-1.09344 -0.02546,-0.36546 0.611132,-0.3201 1.459269,-0.27376 0.404591,0.0222 1.223159,-0.0304 2.900046,-0.28529 2.455878,-0.37276 2.550256,-0.40345 2.746787,-0.89265 0.152221,-0.37895 0.147848,-0.68553 -0.01702,-1.21666 -0.121508,-0.3905 -0.236826,-0.97586 -0.206887,-1.33109 0.01441,-0.31469 0.06199,-0.49986 0.197619,-0.59954 0.135629,-0.0997 0.537272,-0.0589 0.792031,0.0105 0.285309,0.0776 0.576765,0.21611 0.770568,0.43943 0.505896,0.58296 0.692353,0.8783 0.852394,2.15297 0.160039,1.27467 0.0096,0.89429 0.0096,0.89429 l 0.691263,-0.0155 c 0.73496,-0.0169 2.761161,-0.2672 4.041981,-0.50027 0.720492,-0.13104 0.781308,-0.10919 0.894262,0.32129 0.07142,0.27211 0.07232,0.67054 -0.160945,0.94622 -0.189509,0.224 -0.258789,0.33165 -1.982882,0.54762 -0.993428,0.0765 -2.263879,0.29862 -3.394335,0.45868 -2.633823,0.37285 -3.854795,0.36574 -7.894256,1.1684 -0.492705,0.0978 -0.618599,0.0193 -1.172448,-0.73121 z" id="path10-1" />
      <path style="fill:#000000;fill-opacity:1;stroke-width:0.184371" d="m 42.871009,143.09643 c -1.075778,-0.47105 -1.981656,-1.49826 -2.284441,-2.61552 -0.244502,-0.90221 -0.02485,-1.9992 0.525851,-2.75451 0.837873,-1.14916 2.444605,-2.04697 3.745413,-2.04334 0.890969,0.002 0.844411,0.44007 0.693373,0.84699 -0.454047,1.22329 -0.721267,0.83707 -1.518949,1.20147 -1.506011,0.52165 -1.445506,1.49322 -1.20217,2.42771 0.176512,0.67786 0.245852,0.68962 0.762621,1.53843 0.534533,0.6583 0.82137,0.83618 1.448892,1.3631 0.44165,0.37086 -0.251442,0.51993 -0.51488,0.47809 -0.884423,-0.14045 -0.90755,-0.15583 -1.65571,-0.44242 z m 0.564618,-0.84404 c 0.02097,-0.48689 -0.188607,-0.70548 -0.474132,-0.49437 -0.262709,0.19422 -0.400056,0.73112 -0.221114,0.8644 0.202632,0.15089 0.683832,-0.10509 0.695246,-0.37003 z m -1.318113,-3.5732 c -0.02224,-0.15203 -0.126723,-0.21163 -0.329429,-0.18199 -0.202702,0.0296 -0.339703,0.14107 -0.317465,0.29309 0.02225,0.15202 0.17049,0.22991 0.373193,0.20024 0.202703,-0.0296 0.295937,-0.1593 0.273701,-0.31134 z" id="path11-6" />
    </g>
  </g>
</svg>